<svg xmlns="http://www.w3.org/2000/svg" xmlns:xlink="http://www.w3.org/1999/xlink" width="200" zoomAndPan="magnify" viewBox="0 0 150 149.999998" height="200" preserveAspectRatio="xMidYMid meet" version="1.0"><metadata><ContainsAiGeneratedContent>Yes</ContainsAiGeneratedContent></metadata><defs><clipPath id="83ca5cd8cc"><path d="M 5.636719 15 L 144.386719 15 L 144.386719 135 L 5.636719 135 Z M 5.636719 15 " clip-rule="nonzero"/></clipPath></defs><path fill="#6aadab" d="M 76.296875 122.574219 C 76.316406 122.613281 76.433594 123.335938 76.53125 123.980469 C 74.773438 124.933594 71.359375 127.042969 68.941406 127.644531 C 68.492188 126.847656 67.558594 125.109375 67.558594 125.109375 C 67.558594 125.109375 67.34375 122.652344 68.242188 122.320312 L 67.597656 122.28125 C 67.597656 122.28125 68.609375 118.011719 68.902344 117.5625 C 69.195312 117.113281 70.582031 113.347656 70.582031 113.347656 C 70.582031 113.347656 71.050781 112.335938 71.050781 112.0625 C 71.03125 111.789062 73.15625 109.078125 73.214844 109.019531 C 73.273438 108.960938 73.507812 107.964844 73.507812 107.964844 C 73.507812 107.964844 74.074219 109.097656 74.074219 109.15625 C 74.074219 109.214844 74.382812 115.183594 75.203125 117.367188 C 76.023438 119.570312 76.6875 122.046875 76.6875 122.046875 L 76.824219 122.671875 C 76.824219 122.652344 76.277344 122.515625 76.296875 122.574219 Z M 76.296875 122.574219 " fill-opacity="1" fill-rule="nonzero"/><g clip-path="url(#83ca5cd8cc)"><path fill="#6aadab" d="M 144.292969 84.304688 C 144.292969 46.035156 113.28125 15 75.007812 15 C 36.738281 15 5.703125 46.035156 5.703125 84.304688 C 5.703125 104.082031 13.996094 121.910156 27.277344 134.550781 C 28.488281 134.863281 30.125 135 31.921875 134.199219 C 35.878906 132.40625 37.1875 132.347656 38.785156 131.820312 C 40.386719 131.292969 43.410156 126.808594 46.53125 126.007812 C 48.832031 125.421875 57.414062 125.8125 62.738281 126.59375 C 62.777344 126.378906 62.894531 126.105469 63.148438 125.753906 C 64.105469 124.46875 64.515625 122.183594 64.515625 122.183594 L 64.867188 122.300781 C 64.867188 122.300781 65.332031 119.804688 65.257812 117.230469 C 65.160156 114.65625 66.503906 111.59375 66.503906 111.59375 C 66.503906 111.59375 67.5 109.640625 68.027344 108.375 C 68.53125 107.105469 68.882812 102.816406 68.882812 102.816406 L 67.753906 103.011719 L 67.636719 101.605469 L 68.511719 91.210938 L 68.492188 91.210938 L 67.988281 89.003906 L 67.8125 88.167969 L 67.34375 87.796875 L 67.382812 87.152344 C 67.382812 87.152344 67.65625 86.605469 67.65625 86.527344 C 67.65625 86.449219 67.695312 86.097656 67.695312 86.058594 C 67.695312 86.019531 67.910156 85.707031 67.910156 85.707031 L 67.96875 84.832031 C 67.96875 84.832031 67.832031 84.578125 67.773438 84.558594 C 67.714844 84.539062 68.125 84.128906 68.125 84.089844 C 68.125 84.050781 66.523438 84.148438 66.523438 84.148438 L 64.632812 83.71875 L 64.847656 86.214844 L 64.808594 86.078125 L 64.632812 86.234375 L 64.515625 83.679688 L 64.085938 83.523438 L 63.324219 82.976562 C 63.324219 82.976562 62.796875 82.199219 62.796875 82.160156 C 62.796875 82.121094 62.621094 82.042969 62.621094 82.042969 L 62.5625 82.316406 L 62.835938 82.820312 L 63.34375 87.816406 L 62.933594 87.640625 L 62.367188 88.089844 L 62.058594 83.035156 L 62.273438 82.238281 C 62.273438 82.238281 62.15625 81.808594 62.117188 81.789062 C 62.078125 81.769531 61.628906 81.496094 61.628906 81.496094 C 61.628906 81.496094 61.433594 80.597656 61.394531 80.578125 C 61.375 80.558594 61.121094 80.753906 61.101562 80.753906 C 61.082031 80.773438 60.710938 80.988281 60.59375 81.066406 C 60.671875 80.988281 60.808594 80.792969 60.808594 80.792969 L 61.042969 80.285156 L 61.414062 80.167969 C 61.414062 80.167969 61.335938 79.875 61.296875 79.796875 C 61.257812 79.71875 61.023438 78.980469 61.023438 78.980469 L 60.75 78.101562 C 60.75 78.101562 60.535156 78.082031 60.457031 78.023438 C 60.378906 77.964844 60.632812 76.851562 60.632812 76.851562 L 60.4375 76.113281 L 60.574219 75.878906 L 60.710938 74.960938 L 60.984375 74.042969 L 61.121094 72.113281 C 61.121094 72.113281 61.257812 71.195312 61.257812 71.15625 C 61.257812 71.097656 61.824219 70.007812 61.824219 70.007812 C 61.824219 70.007812 61.765625 68.757812 61.804688 68.679688 C 61.84375 68.601562 61.863281 67.917969 61.863281 67.878906 C 61.863281 67.820312 61.960938 67.566406 61.980469 67.507812 C 62 67.453125 62.464844 67.375 62.464844 67.375 L 62.777344 67.355469 L 62.992188 66.496094 L 64.476562 66.085938 C 64.476562 66.085938 65.898438 65.539062 65.9375 65.519531 C 65.957031 65.5 66.679688 65.265625 66.699219 65.285156 C 66.71875 65.304688 67.324219 65.148438 67.324219 65.148438 L 66.953125 64.699219 L 67.578125 64.058594 L 67.734375 64.371094 C 67.734375 64.371094 67.636719 64.449219 67.695312 64.601562 C 67.753906 64.738281 68.046875 64.488281 68.046875 64.488281 C 68.046875 64.488281 68.242188 64.292969 68.394531 64.136719 L 68.203125 64.078125 C 68.203125 64.078125 68.414062 63.980469 68.667969 63.84375 L 68.84375 63.609375 L 69.507812 63.238281 L 69.683594 63.316406 C 69.78125 63.140625 70.347656 62.046875 70.503906 62.007812 C 70.679688 61.988281 70.386719 61.558594 69.78125 60.9375 C 69.175781 60.3125 69.214844 58.070312 69.058594 57.855469 C 68.902344 57.660156 69 57.210938 69 57.191406 C 69.019531 57.171875 68.765625 57.054688 68.765625 57.054688 C 68.765625 57.054688 68.453125 57.582031 68.222656 57.933594 C 67.988281 58.285156 68.765625 59.453125 68.414062 59.707031 C 68.066406 59.980469 68.570312 61.636719 68.570312 61.636719 L 68.316406 61.519531 L 68.511719 61.890625 C 68.511719 61.890625 66.660156 62.574219 65.878906 59.921875 C 65.101562 57.289062 66.308594 56.273438 67.65625 55.667969 C 69 55.066406 68.980469 56.078125 68.980469 56.078125 C 68.980469 56.078125 69.332031 56.234375 69.488281 56.292969 C 69.644531 56.351562 69.859375 56.292969 69.917969 56.3125 C 69.976562 56.332031 70.601562 55.046875 70.855469 54.890625 C 71.109375 54.734375 73.488281 54.285156 73.527344 54.285156 C 73.546875 54.285156 73.351562 54.226562 73.351562 54.226562 L 73.703125 54.1875 L 73.566406 54.128906 C 73.605469 54.128906 73.820312 54.148438 75.007812 54.226562 C 76.6875 54.363281 76.804688 55.027344 77.992188 55.628906 C 79.183594 56.234375 78.441406 57.269531 78.441406 57.269531 C 78.988281 58.226562 78.5 60.097656 78.5 60.097656 C 78.929688 61.386719 79.027344 62.144531 79.027344 62.144531 C 79.027344 62.144531 78.207031 62.242188 78.285156 62.261719 C 78.363281 62.28125 78.34375 62.886719 78.34375 62.886719 L 77.894531 62.75 C 77.894531 62.75 77.796875 62.945312 78.011719 62.964844 C 78.226562 62.984375 78.011719 63.316406 77.933594 63.277344 C 77.855469 63.238281 77.777344 63.21875 77.738281 63.257812 C 77.601562 63.414062 77.523438 64.117188 77.195312 64.351562 C 76.863281 64.582031 75.339844 64.058594 75.300781 64.058594 C 75.242188 64.058594 74.152344 64.582031 73.996094 64.894531 C 73.878906 65.128906 74.636719 66.007812 74.929688 66.320312 C 74.949219 66.339844 74.96875 66.359375 74.988281 66.398438 C 74.96875 66.378906 74.949219 66.359375 74.929688 66.320312 C 74.597656 65.988281 74.25 65.792969 73.9375 65.675781 L 74.5 66.535156 C 74.5 66.535156 75.671875 67.859375 76.628906 69.148438 C 77.582031 70.417969 77.019531 71.332031 77 71.371094 C 77.039062 71.351562 78.011719 70.921875 78.148438 70.84375 C 78.285156 70.765625 79.75 69.832031 79.75 69.832031 C 79.75 69.832031 81.796875 68.09375 81.835938 68.015625 C 81.894531 67.9375 82.460938 67.472656 82.695312 67.335938 C 82.949219 67.21875 84.234375 65.1875 84.722656 65.128906 C 85.210938 65.070312 86.789062 64.601562 86.789062 64.601562 L 89.132812 60.78125 C 89.132812 60.78125 90.632812 61.890625 90.730469 61.949219 C 90.828125 62.007812 95.527344 65.460938 95.527344 65.460938 L 99.039062 68.308594 L 100.621094 69.910156 L 100.289062 70.28125 C 100.308594 70.28125 100.699219 70.144531 100.757812 70.105469 C 100.835938 70.085938 101.1875 70.261719 101.1875 70.261719 L 97.988281 73.324219 L 94.261719 77.183594 L 88.800781 82.683594 L 84.878906 86.605469 L 84.644531 86.507812 L 84.3125 86.371094 L 83.785156 86.664062 L 83.222656 86.664062 L 83.921875 85.667969 C 83.921875 85.667969 85.054688 84.285156 85.210938 84.167969 C 85.347656 84.050781 85.230469 83.953125 85.230469 83.953125 L 84.878906 83.289062 C 84.878906 83.289062 83.84375 81.867188 83.824219 81.730469 C 83.804688 81.613281 83.375 81.183594 83.335938 81.183594 C 83.28125 81.164062 82.402344 80.285156 82.402344 80.285156 L 81.933594 80.246094 L 80.683594 80.070312 C 80.683594 80.070312 79.125 79.933594 79.046875 79.933594 C 78.96875 79.933594 78.265625 79.738281 78.207031 79.777344 C 78.148438 79.816406 78.988281 82.996094 78.988281 82.996094 L 79.007812 84.675781 L 79.476562 84.695312 L 79.59375 85.726562 L 79.417969 86.859375 L 79.808594 88.574219 L 79.847656 90.644531 L 81.015625 94.757812 L 81.71875 98.269531 L 81.855469 102.386719 C 80.9375 103.402344 78.871094 102.09375 78.871094 102.09375 C 78.871094 102.09375 79.046875 103.34375 78.890625 104.160156 C 78.753906 104.980469 78.226562 110.441406 78.382812 110.929688 C 78.539062 111.398438 79.046875 117.308594 79.144531 118.828125 C 79.242188 120.332031 79.730469 122.730469 79.730469 122.730469 L 80.199219 122.710938 C 80.199219 122.964844 80.238281 123.375 80.46875 123.84375 C 81.777344 123.84375 83.203125 123.648438 84.058594 123.003906 C 85.835938 121.714844 88.527344 121.269531 88.878906 120.957031 C 89.25 120.644531 96.171875 118.324219 96.113281 117.503906 C 96.035156 116.683594 96.308594 117.367188 96.953125 117.875 C 97.617188 118.382812 99.410156 117.757812 100.796875 117.933594 C 102.179688 118.128906 100.40625 116.214844 101.339844 115.707031 C 102.277344 115.203125 102.882812 114.617188 103.683594 114.421875 C 104.480469 114.226562 105.691406 112.722656 105.847656 112.722656 C 106.023438 112.722656 114.761719 109.816406 114.820312 109.332031 C 114.878906 108.824219 116.691406 109.488281 117.082031 109.699219 C 117.492188 109.914062 120.964844 111.046875 122.855469 111.632812 C 124.730469 112.238281 129.039062 112.878906 130.210938 113.445312 C 131.359375 113.992188 133.585938 114.304688 134.152344 114.597656 C 134.714844 114.910156 135.398438 118.207031 135.398438 118.207031 C 135.398438 118.207031 135.378906 118.285156 135.339844 118.402344 C 141.054688 108.335938 144.292969 96.691406 144.292969 84.304688 Z M 60.554688 81.046875 C 60.535156 81.046875 60.535156 81.066406 60.535156 81.066406 C 60.515625 81.066406 60.515625 81.066406 60.554688 81.046875 Z M 60.554688 81.046875 " fill-opacity="1" fill-rule="nonzero"/></g><path fill="#ffffff" d="M 60.554688 81.046875 C 60.535156 81.046875 60.535156 81.066406 60.535156 81.066406 C 60.515625 81.066406 60.515625 81.066406 60.554688 81.046875 Z M 60.554688 81.046875 " fill-opacity="1" fill-rule="nonzero"/><path fill="#ffffff" d="M 68.085938 64.058594 C 68.085938 64.058594 68.300781 63.960938 68.550781 63.824219 L 68.492188 63.902344 C 68.492188 63.902344 68.394531 64 68.28125 64.117188 Z M 68.085938 64.058594 " fill-opacity="1" fill-rule="nonzero"/><path fill="#ffffff" d="M 69.390625 63.21875 L 69.566406 63.296875 C 69.566406 63.316406 69.546875 63.316406 69.546875 63.316406 C 69.546875 63.335938 68.980469 63.609375 68.550781 63.824219 L 68.726562 63.589844 Z M 69.390625 63.21875 " fill-opacity="1" fill-rule="nonzero"/><path fill="#ffffff" d="M 74.890625 66.359375 C 74.871094 66.339844 74.851562 66.320312 74.832031 66.28125 C 74.851562 66.320312 74.871094 66.339844 74.890625 66.359375 Z M 74.890625 66.359375 " fill-opacity="1" fill-rule="nonzero"/><path fill="#6aadab" d="M 69.566406 63.296875 C 69.566406 63.316406 69.546875 63.316406 69.546875 63.316406 C 69.546875 63.335938 68.980469 63.609375 68.550781 63.824219 L 68.726562 63.589844 L 69.390625 63.21875 Z M 69.566406 63.296875 " fill-opacity="1" fill-rule="nonzero"/><path fill="#6aadab" d="M 60.554688 81.046875 C 60.535156 81.046875 60.535156 81.066406 60.535156 81.066406 C 60.515625 81.066406 60.515625 81.066406 60.554688 81.046875 Z M 60.554688 81.046875 " fill-opacity="1" fill-rule="nonzero"/><path fill="#6aadab" d="M 68.550781 63.824219 L 68.492188 63.902344 C 68.492188 63.902344 68.394531 64 68.28125 64.117188 L 68.085938 64.058594 C 68.085938 64.058594 68.28125 63.960938 68.550781 63.824219 Z M 68.550781 63.824219 " fill-opacity="1" fill-rule="nonzero"/><path fill="#6aadab" d="M 74.890625 66.359375 C 74.871094 66.339844 74.851562 66.320312 74.832031 66.28125 C 74.851562 66.320312 74.871094 66.339844 74.890625 66.359375 Z M 74.890625 66.359375 " fill-opacity="1" fill-rule="nonzero"/></svg>