<?xml version="1.0" encoding="UTF-8"?>
<svg version="1.1" xmlns="http://www.w3.org/2000/svg" width="500" height="500">
<path d="M0 0 C-0.57623674 4.49297631 -2.33832673 7.53577969 -4.6875 11.375 C-14.960474 28.73940124 -22.09117097 49.29513482 -17.13671875 69.44921875 C-13.74617906 80.04028602 -8.25823887 88.69073847 -1 97 C-0.05658797 98.12331851 0.88468308 99.24843733 1.82421875 100.375 C7.13984468 106.7127955 12.57631459 112.78878364 18.55078125 118.5234375 C20.54387762 120.53878535 22.38558712 122.57977185 24.23046875 124.7265625 C28.26433028 129.381227 32.61001378 133.68367127 37 138 C42.02362397 142.93933498 46.90671357 147.91191265 51.49853516 153.2578125 C53.33836897 155.39261805 55.26324072 157.44131143 57.1875 159.5 C87.8018817 193.60869784 97.97141008 232.83448952 96 278 C93.97319823 308.77538473 87.17887923 341.07817708 72.00488281 368.19042969 C70.96618205 370.06089859 69.97743654 371.95245927 68.9921875 373.8515625 C57.49530948 395.61158607 41.10724606 414.01872076 23.875 431.375 C22.51568359 432.74845581 22.51568359 432.74845581 21.12890625 434.1496582 C15.05917432 440.19029319 8.71557815 445.69147092 2 451 C0.95030029 451.84667236 0.95030029 451.84667236 -0.12060547 452.71044922 C-16.09511925 465.55539403 -33.37296466 476.4256504 -52 485 C-52.61262695 485.28842773 -53.22525391 485.57685547 -53.85644531 485.87402344 C-57.22223981 487.40587999 -59.22417626 488 -63 488 C-64.83001535 481.42858125 -66.23320812 474.86789848 -67.38671875 468.14941406 C-74.78604893 425.15930571 -99.07980787 395.81995764 -128.31982422 364.7890625 C-131.43428077 361.47276816 -134.51457407 358.12502113 -137.59521484 354.77734375 C-140.08607047 352.071229 -142.58381395 349.37229303 -145.09765625 346.6875 C-151.34470248 340.00273758 -157.36956686 333.22122332 -163 326 C-163.43699219 325.44618652 -163.87398437 324.89237305 -164.32421875 324.32177734 C-184.43033253 298.67521835 -191.69951323 270.04180514 -188.22631836 237.76806641 C-184.98803694 211.10119025 -176.93565732 185.54580322 -164 162 C-163.64292969 161.34773437 -163.28585938 160.69546875 -162.91796875 160.0234375 C-158.13229726 151.39908252 -152.99061493 144.02366749 -146 137 C-143.54719566 140.67920651 -143.72080249 142.59369296 -143.65625 146.984375 C-143.6416272 147.67702454 -143.62700439 148.36967407 -143.61193848 149.08331299 C-143.56549152 151.30548213 -143.5313698 153.52757022 -143.5 155.75 C-143.09930066 183.32427934 -137.13345411 206.62985328 -117.84765625 227.2421875 C-116.11016177 229.06679286 -116.11016177 229.06679286 -114 230 C-114.13277344 229.3709375 -114.26554687 228.741875 -114.40234375 228.09375 C-114.57894531 227.2378125 -114.75554687 226.381875 -114.9375 225.5 C-115.11152344 224.6646875 -115.28554687 223.829375 -115.46484375 222.96875 C-116.69804817 216.12761599 -117.23639774 209.31701474 -117.55078125 202.3828125 C-117.59262039 201.47371124 -117.63445953 200.56460999 -117.67756653 199.62796021 C-118.07583158 190.3062918 -118.18612182 180.98999494 -118.18530273 171.66064453 C-118.187505 168.86866328 -118.20582094 166.07706923 -118.22460938 163.28515625 C-118.27262825 148.32099576 -118.1943114 132.62996765 -113.5625 118.25 C-113.31081055 117.44473877 -113.05912109 116.63947754 -112.79980469 115.80981445 C-95.64037525 63.76981828 -52.4802394 26.98695988 -6 1 C-3 0 -3 0 0 0 Z " fill="#FEFEFE" transform="translate(297,6)"/>
</svg>
